<?xml version="1.0" standalone="no"?>
<!DOCTYPE svg PUBLIC "-//W3C//DTD SVG 20010904//EN"
 "http://www.w3.org/TR/2001/REC-SVG-20010904/DTD/svg10.dtd">
<svg version="1.0" xmlns="http://www.w3.org/2000/svg"
 width="120.000000pt" height="120.000000pt" viewBox="0 0 120.000000 120.000000"
 preserveAspectRatio="xMidYMid meet">
<metadata>
Created by potrace 1.14, written by Peter Selinger 2001-2017
</metadata>
<g transform="translate(0.000000,120.000000) scale(0.100000,-0.100000)"
fill="#000000" stroke="none">
<path d="M506 1180 c-126 -33 -194 -118 -209 -265 -5 -46 5 -86 17 -67 13 22
26 12 26 -19 0 -17 -7 -37 -15 -45 -23 -23 -18 -56 15 -105 16 -24 30 -48 30
-52 0 -21 42 -66 56 -60 8 3 22 -3 32 -13 9 -11 28 -19 41 -19 32 0 38 -21 9
-31 -12 -4 -52 -21 -88 -37 -49 -23 -81 -31 -128 -32 -34 -1 -68 -7 -74 -13
-8 -8 -12 -39 -11 -83 2 -62 -2 -79 -29 -132 -39 -77 -49 -122 -37 -155 20
-52 15 -51 455 -51 l412 -1 26 25 c34 31 34 73 0 145 -23 48 -26 67 -25 152 1
67 -2 99 -11 104 -7 4 -44 9 -83 10 -58 1 -84 8 -147 38 -42 20 -81 36 -87 36
-15 0 -14 30 2 31 6 1 20 0 30 -1 11 -1 26 8 34 20 12 17 18 19 24 9 12 -19
35 4 55 57 9 24 20 44 24 44 14 0 30 55 29 100 -1 25 0 79 1 120 1 41 -3 91
-8 110 -41 158 -182 227 -366 180z"/>
</g>
</svg>
